<!--?xml version="1.0" standalone="no"?-->
              <svg id="sw-js-blob-svg" viewBox="0 0 100 100" xmlns="http://www.w3.org/2000/svg" version="1.1">
                    <defs> 
                        <linearGradient id="sw-gradient" x1="0" x2="1" y1="1" y2="0">
                            <stop id="stop1" stop-color="rgba(245, 145, 134, 1)" offset="0%"></stop>
                            <stop id="stop2" stop-color="rgba(227, 113, 101, 1)" offset="100%"></stop>
                        </linearGradient>
                    </defs>
                <path fill="url(#sw-gradient)" d="M22.1,-35.1C27.7,-30.7,30.6,-23,33.2,-15.7C35.8,-8.3,38,-1.3,38.1,6.3C38.3,13.9,36.5,22,31.9,28.2C27.4,34.5,20.1,39,12.9,38.7C5.8,38.3,-1.2,33.2,-7.2,29.3C-13.2,25.4,-18.2,22.7,-25,19.2C-31.8,15.7,-40.4,11.4,-43,5.1C-45.5,-1.1,-42,-9.3,-37.1,-15.7C-32.2,-22,-26.1,-26.5,-19.7,-30.5C-13.3,-34.5,-6.6,-38.1,0.8,-39.3C8.2,-40.6,16.5,-39.5,22.1,-35.1Z" width="100%" height="100%" transform="translate(50 50)" style="transition: 0.3s;" stroke-width="0"></path>
              </svg>